<?xml version="1.0" standalone="no"?>
<!DOCTYPE svg PUBLIC "-//W3C//DTD SVG 20010904//EN"
 "http://www.w3.org/TR/2001/REC-SVG-20010904/DTD/svg10.dtd">
<svg version="1.0" xmlns="http://www.w3.org/2000/svg"
 width="714.000000pt" height="533.000000pt" viewBox="0 0 714.000000 533.000000"
 preserveAspectRatio="xMidYMid meet">

<g transform="translate(0.000000,533.000000) scale(0.100000,-0.100000)"
fill="#000000" stroke="none">
<path d="M3734 5028 c-3 -5 9 -14 27 -20 l32 -11 -7 -86 c-8 -100 -44 -323
-54 -333 -4 -3 -20 -8 -36 -10 -16 -2 -31 -8 -33 -14 -3 -9 66 -22 191 -37 34
-4 27 18 -9 32 -40 14 -39 6 -23 123 l12 90 35 -6 c20 -3 42 -6 49 -6 8 0 12
-17 12 -52 0 -68 35 -144 86 -186 70 -58 185 -66 269 -19 101 57 156 201 121
320 -31 106 -112 167 -222 167 -106 0 -192 -57 -234 -155 -17 -40 -19 -41 -59
-37 -23 2 -43 7 -46 11 -5 9 19 164 29 179 4 7 21 12 39 12 20 0 28 3 21 10
-13 13 -194 39 -200 28z m505 -93 c90 -46 122 -171 80 -318 -14 -51 -71 -113
-110 -121 -41 -8 -108 10 -137 37 -44 41 -62 90 -62 173 0 101 16 149 66 201
37 39 45 43 88 43 26 0 60 -7 75 -15z"/>
<path d="M3319 4983 c-11 -3 -26 -49 -54 -171 -60 -265 -73 -301 -112 -320
-46 -22 -41 -35 10 -28 23 3 66 8 95 12 28 4 52 10 52 15 0 8 -25 13 -33 7 -2
-2 -12 3 -21 11 -20 17 -20 18 27 233 18 82 34 148 37 148 3 0 44 -77 90 -171
81 -163 84 -171 66 -184 -10 -8 -24 -16 -30 -18 -6 -2 -8 -7 -5 -10 10 -11
202 17 207 31 2 8 -7 12 -27 12 -41 0 -64 33 -176 252 -51 100 -97 183 -102
184 -4 1 -15 0 -24 -3z"/>
<path d="M2480 4707 c-142 -86 -170 -116 -170 -180 0 -79 60 -133 139 -125 38
3 42 2 37 -16 -3 -11 -13 -67 -22 -125 -16 -101 -19 -108 -56 -143 -69 -67
-72 -66 -216 70 -175 165 -168 157 -154 194 6 18 9 34 6 37 -2 3 -37 -27 -76
-67 -72 -72 -84 -102 -27 -68 49 29 57 12 69 -144 5 -74 10 -164 10 -200 l0
-65 -117 117 c-113 113 -116 118 -104 144 22 49 1 39 -71 -34 -72 -71 -84
-102 -28 -68 27 15 32 15 51 3 42 -30 279 -267 279 -280 0 -7 -7 -22 -15 -34
-18 -25 -1 -44 19 -22 7 8 39 42 71 77 61 65 67 86 16 56 -28 -17 -31 -17 -49
-1 -16 15 -20 38 -26 170 -3 83 -8 169 -11 190 -3 24 -1 37 6 37 6 0 61 -49
122 -109 l111 -110 -17 -35 c-26 -55 -3 -44 76 37 40 41 91 86 114 100 60 38
71 59 83 167 14 116 26 157 50 170 16 9 23 3 46 -37 15 -27 33 -58 40 -70 18
-30 18 -53 -3 -75 -9 -10 -14 -21 -11 -24 7 -7 177 88 178 99 0 5 -17 6 -38 2
-39 -6 -39 -6 -79 57 -85 133 -163 273 -163 294 0 12 7 27 15 34 16 13 20 30
8 29 -5 0 -46 -23 -93 -52z m49 -132 c28 -46 51 -86 51 -89 0 -14 -63 -36
-101 -36 -33 0 -47 6 -75 34 -48 48 -48 96 2 142 19 19 44 34 54 34 12 0 35
-27 69 -85z"/>
<path d="M4735 4659 c-247 -225 -254 -231 -285 -224 -27 6 -28 4 -54 -71 -26
-78 -23 -115 7 -72 31 46 65 78 81 78 10 0 78 -32 152 -72 l135 -71 -7 -31
c-3 -17 -13 -43 -20 -58 -8 -15 -14 -32 -14 -38 0 -18 27 -11 43 13 9 12 32
40 51 62 42 46 43 51 16 60 -26 8 -26 26 6 286 21 174 23 213 12 220 -7 5 -15
9 -18 9 -3 0 -50 -41 -105 -91z m33 -177 c-12 -94 -25 -177 -29 -183 -8 -14
-214 91 -214 109 0 11 257 254 262 248 1 -1 -7 -79 -19 -174z"/>
<path d="M5210 4532 c0 -6 8 -24 17 -40 17 -30 17 -30 -20 -76 -53 -64 -237
-266 -243 -266 -3 0 -18 7 -34 15 -57 30 -38 -4 41 -70 80 -68 107 -78 75 -30
-16 24 -14 64 2 66 4 0 94 10 200 22 105 12 192 19 192 15 0 -4 -33 -44 -72
-89 -40 -44 -86 -96 -101 -115 -30 -35 -63 -44 -85 -22 -8 8 -15 9 -22 2 -6
-6 18 -33 70 -77 43 -37 81 -67 84 -67 12 0 6 24 -11 42 -23 26 -13 43 115
189 134 154 147 164 178 144 35 -23 41 2 7 28 -15 12 -49 41 -75 65 -29 27
-49 39 -53 32 -4 -6 0 -19 9 -29 27 -29 20 -49 -21 -60 -46 -11 -363 -45 -369
-38 -6 5 180 218 201 230 11 6 26 5 42 -2 43 -20 40 -1 -7 40 -84 74 -120 101
-120 91z"/>
<path d="M4087 4229 c-132 -31 -242 -164 -277 -333 -13 -66 -10 -103 20 -195
25 -80 25 -162 0 -286 -41 -198 -18 -312 92 -445 19 -24 28 -46 28 -71 0 -50
-55 -154 -145 -274 -125 -167 -176 -283 -198 -447 -15 -121 -1 -216 48 -316
53 -108 192 -245 330 -327 55 -32 142 -90 192 -127 123 -91 161 -108 248 -108
82 0 142 24 219 89 27 23 50 40 52 38 2 -1 -4 -30 -13 -62 -11 -42 -14 -85
-10 -144 5 -81 8 -91 76 -225 44 -88 74 -159 77 -188 6 -41 4 -49 -21 -74 -24
-24 -32 -26 -84 -21 -137 12 -250 93 -546 391 -266 267 -352 330 -504 366 -68
16 -159 9 -236 -19 -97 -36 -97 -36 -131 11 -87 121 -162 285 -257 563 -88
257 -114 315 -160 362 -22 24 -39 45 -36 47 2 2 87 -5 189 -16 144 -15 201
-18 256 -10 129 17 203 67 188 126 -8 34 -41 34 -154 0 -197 -60 -217 -65
-288 -65 -224 0 -562 160 -623 296 -37 80 -16 179 45 216 17 11 52 27 79 37
46 16 47 18 47 59 l0 42 58 -26 c37 -17 82 -27 128 -31 l71 -4 -4 103 c-5 136
-27 227 -59 241 -22 10 -22 12 -6 24 25 19 50 17 57 -6 9 -28 33 -50 56 -50
27 0 26 51 -3 76 -37 33 -78 106 -78 141 0 46 20 53 158 53 196 0 267 20 362
105 62 55 77 57 72 10 -4 -30 -11 -39 -44 -56 -22 -11 -47 -33 -56 -50 -20
-33 -33 -38 -25 -9 4 13 0 20 -10 20 -17 0 -27 -29 -27 -83 0 -37 -1 -37 -23
-23 -21 14 -23 13 -39 -14 l-17 -30 29 0 c20 0 41 -13 75 -45 44 -43 130 -95
157 -95 7 0 -4 16 -24 36 -33 31 -38 41 -38 82 l-1 47 -19 -24 -20 -23 0 55
c0 31 -5 57 -11 59 -19 6 39 58 65 58 33 0 80 -41 105 -93 12 -24 25 -84 32
-142 7 -55 15 -104 19 -108 7 -9 30 166 30 233 0 47 -11 75 -66 160 -58 91
-59 98 -24 153 19 30 25 47 17 47 -7 0 -23 -18 -36 -40 -13 -24 -35 -46 -54
-54 -18 -7 -52 -32 -77 -56 -84 -78 -159 -100 -346 -100 -135 0 -163 -6 -175
-39 -12 -30 4 -107 28 -133 14 -16 14 -18 -3 -24 -52 -16 -96 -39 -104 -54 -4
-8 -8 -36 -8 -60 1 -60 -14 -87 -54 -95 -98 -19 -114 -42 -93 -131 8 -33 14
-62 15 -66 0 -3 -31 -19 -70 -34 -78 -30 -90 -41 -113 -102 -37 -93 -17 -162
72 -249 70 -68 230 -149 381 -194 l45 -14 -37 -3 c-49 -4 -49 -22 1 -71 51
-50 78 -105 131 -266 93 -281 184 -489 279 -640 28 -43 51 -83 51 -89 0 -5
-11 -23 -24 -40 -58 -77 -71 -115 -71 -216 0 -116 20 -180 76 -243 72 -83 192
-105 276 -50 69 44 79 97 40 193 -29 70 -66 123 -159 230 -70 79 -104 128 -96
135 12 11 113 37 170 45 81 10 161 0 238 -29 70 -26 189 -116 259 -195 77 -87
285 -291 368 -363 181 -156 367 -215 430 -136 41 51 29 101 -72 307 -68 136
-69 140 -69 220 -1 100 19 146 123 291 91 126 134 202 171 303 55 152 79 378
48 452 -8 19 -32 51 -52 71 l-37 36 30 13 c17 7 31 19 31 27 0 8 9 28 21 44
29 41 37 135 15 177 -31 60 -125 85 -238 62 -126 -24 -198 -81 -238 -187 -33
-88 -37 -173 -11 -264 11 -41 21 -97 21 -123 l0 -47 -35 7 c-26 5 -44 1 -70
-15 -50 -29 -81 -26 -122 10 -39 34 -95 38 -101 8 -4 -19 44 -41 130 -59 32
-6 60 -16 63 -21 4 -5 -1 -34 -9 -63 l-16 -54 -40 5 c-37 5 -49 0 -123 -49
-45 -31 -92 -59 -104 -62 -31 -10 -29 -21 10 -43 17 -11 48 -40 67 -66 50 -66
93 -86 202 -98 116 -12 174 -38 195 -87 43 -104 -44 -202 -179 -202 -79 0
-143 29 -253 113 -239 182 -309 278 -334 458 -19 139 19 306 83 366 25 23 63
40 138 63 56 18 128 45 158 60 110 56 204 186 239 331 12 47 30 116 41 152 21
76 8 92 -25 31 -30 -57 -113 -125 -224 -184 -56 -30 -123 -70 -148 -89 -45
-33 -46 -33 -40 -10 23 85 29 194 18 302 -6 62 -11 147 -11 188 0 71 3 79 74
229 124 260 130 334 56 615 -16 61 -32 123 -35 139 -8 39 -13 30 -37 -61 -18
-73 -34 -106 -133 -286 -24 -44 -43 -98 -54 -155 -21 -99 -18 -100 -74 43 -63
162 -67 189 -41 294 32 129 104 231 184 264 19 8 60 18 90 22 70 8 90 14 90
26 0 11 -61 10 -113 -2z m114 -315 c66 -212 51 -337 -76 -609 -17 -38 -40 -91
-50 -117 -10 -27 -22 -48 -26 -48 -5 0 -9 36 -9 79 0 77 10 124 82 386 22 80
37 242 21 232 -5 -4 -13 -51 -16 -106 -5 -77 -15 -127 -46 -222 -22 -68 -45
-151 -52 -184 l-12 -60 -25 65 c-21 55 -25 82 -26 170 0 120 9 149 83 280 26
47 63 120 81 162 19 43 35 76 37 75 1 -2 17 -48 34 -103z m-720 -214 c42 -62
59 -109 59 -169 0 -50 -15 -46 -30 8 -14 52 -65 120 -102 135 -22 9 -26 15
-15 19 8 3 18 20 22 37 4 17 12 29 18 27 6 -2 28 -28 48 -57z m432 -210 c64
-167 142 -421 135 -442 -4 -12 -89 120 -106 167 -9 25 -32 174 -32 207 0 5 -4
6 -10 3 -31 -19 4 -181 61 -281 80 -142 111 -216 117 -280 2 -34 1 -64 -4 -67
-10 -6 -178 240 -215 313 -30 61 -36 160 -15 291 9 57 19 119 22 138 7 42 15
33 47 -49z m-1130 -113 c22 -16 50 -178 39 -222 -8 -29 -9 -28 -50 54 -32 64
-42 95 -42 132 0 41 3 49 18 49 10 0 26 -6 35 -13z m-28 -220 c64 -62 72 -90
23 -81 -90 16 -188 55 -188 74 0 7 90 59 103 60 4 0 32 -24 62 -53z m1294
-373 c40 -80 27 -137 -86 -374 -93 -194 -125 -294 -131 -410 -7 -156 47 -323
131 -403 17 -15 27 -30 23 -34 -11 -11 -119 70 -202 153 -127 127 -174 251
-161 428 14 182 73 315 222 503 48 59 71 103 117 223 l9 25 29 -35 c16 -19 38
-53 49 -76z m422 -18 c-24 -100 -86 -229 -138 -287 -20 -22 -57 -52 -81 -67
-36 -21 -176 -74 -315 -119 -16 -5 -16 -2 4 31 29 50 76 86 183 143 116 62
198 122 236 174 47 66 26 59 -39 -12 -44 -49 -83 -78 -157 -118 -55 -30 -116
-65 -137 -78 l-39 -24 7 23 c33 106 104 174 280 267 44 23 109 69 145 101 36
32 66 57 68 55 2 -1 -6 -42 -17 -89z m474 -56 c109 -25 117 -162 13 -216 -39
-20 -166 -20 -274 1 -44 8 -80 15 -81 15 -2 0 -3 -6 -3 -14 0 -17 65 -76 84
-76 7 0 43 -16 79 -35 71 -38 102 -43 111 -20 3 9 18 15 39 15 28 0 39 -7 65
-44 18 -25 36 -66 41 -91 10 -55 -2 -187 -30 -305 -37 -163 -185 -408 -297
-492 -48 -37 -69 -47 -57 -28 8 14 9 93 0 119 -5 15 -26 31 -63 48 l-55 24 87
82 87 83 -33 30 c-18 17 -54 55 -80 84 l-47 53 -50 -7 -50 -7 15 36 c8 19 12
46 8 60 -6 23 -3 25 24 25 40 0 82 16 98 38 19 24 17 65 -6 177 -24 117 -25
198 -4 262 32 97 100 153 216 178 76 16 110 17 163 5z m-1475 -175 c0 -16 -27
-57 -45 -69 -61 -40 -231 -59 -368 -40 -54 8 -53 24 1 24 52 1 195 34 272 64
57 22 140 35 140 21z m1101 -669 c28 -30 50 -58 50 -62 -4 -24 -139 9 -175 42
-32 30 -32 38 -4 58 42 30 73 20 129 -38z m-166 5 c6 -18 19 -39 29 -46 25
-19 6 -25 -40 -15 -25 6 -57 6 -90 -1 -34 -8 -61 -8 -80 -2 l-28 9 64 48 c52
38 72 46 99 44 29 -3 36 -8 46 -37z m-83 -117 l96 -17 4 -41 c3 -23 8 -48 12
-57 6 -14 0 -15 -47 -8 -30 4 -67 14 -84 22 -26 14 -103 96 -103 111 0 9 17 8
122 -10z m272 -43 c-21 -27 -52 -57 -70 -67 -30 -16 -34 -17 -58 -1 -28 19
-44 63 -29 78 19 19 88 38 141 39 l52 0 -36 -49z m-1180 -406 c179 -226 237
-359 184 -423 -37 -44 -154 -60 -214 -29 -51 26 -111 100 -128 158 -21 68 -20
173 1 238 16 50 77 135 93 129 5 -2 33 -34 64 -73z"/>
<path d="M5534 3799 c-3 -6 3 -23 14 -39 47 -64 152 -242 197 -334 95 -198
162 -412 201 -642 22 -125 25 -515 6 -649 -123 -855 -716 -1570 -1527 -1841
-240 -80 -470 -117 -730 -116 -365 1 -701 82 -1030 250 -336 172 -642 448
-861 777 -62 94 -168 294 -199 378 -17 46 -45 64 -45 30 0 -32 157 -336 228
-443 366 -547 933 -905 1597 -1007 136 -21 468 -23 605 -5 516 71 974 296
1335 657 443 442 675 1001 675 1627 0 425 -104 806 -321 1175 -50 85 -125 193
-134 193 -2 0 -7 -5 -11 -11z"/>
<path d="M1423 3632 c-4 -17 3 -30 30 -55 19 -18 94 -94 166 -169 117 -123
130 -140 125 -165 -5 -27 -4 -28 72 -50 45 -13 82 -19 87 -14 5 5 -10 22 -35
39 -77 53 -77 43 1 206 76 159 76 159 144 131 40 -17 67 -19 67 -7 0 5 -30 32
-66 62 l-67 53 -17 -23 c-17 -23 -20 -23 -141 -16 -68 4 -177 13 -242 19
l-118 13 -6 -24z m305 -76 c79 -8 145 -16 148 -18 5 -6 -80 -194 -98 -215 -9
-11 -37 12 -139 114 -71 70 -129 130 -129 134 0 4 17 5 38 3 20 -3 101 -11
180 -18z"/>
<path d="M1292 3354 c-13 -42 -21 -79 -18 -82 3 -3 14 6 25 19 16 20 23 22 45
14 27 -11 199 -155 192 -162 -6 -7 -258 -44 -275 -41 -9 2 -16 10 -16 18 0 8
-4 16 -10 18 -10 4 -66 -164 -57 -173 3 -3 17 9 31 26 29 33 74 45 261 69 52
6 103 14 113 16 22 7 77 -50 77 -80 0 -11 -9 -34 -19 -50 -24 -36 -19 -46 19
-46 44 0 66 37 50 86 -14 42 -125 162 -265 287 -97 87 -117 112 -109 140 3 10
0 17 -8 17 -9 0 -23 -29 -36 -76z"/>
<path d="M1142 2788 c3 -49 -13 -305 -22 -363 -5 -27 -5 -53 -2 -56 12 -10
113 -29 123 -23 13 7 -9 34 -27 34 -7 0 -24 10 -37 23 -21 19 -23 29 -19 80
l4 57 43 0 c55 0 286 -20 340 -29 37 -6 40 -9 45 -45 9 -73 27 -52 34 41 4 48
9 103 12 121 5 24 3 32 -8 32 -9 0 -19 -15 -24 -32 -9 -32 -11 -33 -69 -35
-33 -2 -127 3 -210 10 l-150 12 2 64 c1 35 6 68 11 73 5 5 28 12 51 15 47 6
54 20 14 29 -16 3 -44 10 -63 15 -50 13 -50 12 -48 -23z"/>
<path d="M1510 2240 c0 -5 15 -16 33 -24 135 -57 119 -265 -26 -335 -86 -42
-218 -37 -275 9 -51 42 -78 163 -51 224 7 15 26 30 46 37 31 10 42 35 15 33
-7 -1 -34 -2 -62 -2 l-50 -2 0 -52 c0 -76 25 -184 54 -233 100 -170 366 -161
457 17 27 53 26 178 -1 252 -18 47 -26 56 -61 70 -45 18 -79 21 -79 6z"/>
</g>
</svg>
